G04 #@! TF.FileFunction,Copper,L1,Top,Signal*
%FSLAX46Y46*%
G04 Gerber Fmt 4.6, Leading zero omitted, Abs format (unit mm)*
G04 Created by KiCad (PCBNEW (2015-02-26 BZR 5453)-product) date Thu 20 Aug 2015 19:55:42 CEST*
%MOMM*%
G01*
G04 APERTURE LIST*
%ADD10C,0.100000*%
%ADD11R,0.710000X1.270000*%
%ADD12R,2.032000X2.032000*%
%ADD13O,2.032000X2.032000*%
%ADD14R,1.727200X2.032000*%
%ADD15O,1.727200X2.032000*%
%ADD16C,0.750000*%
%ADD17C,0.254000*%
%ADD18C,0.500000*%
%ADD19C,0.030000*%
G04 APERTURE END LIST*
D10*
D11*
X36470000Y7630000D03*
X30120000Y7630000D03*
X23770000Y7630000D03*
X17420000Y7630000D03*
X35200000Y7630000D03*
X28850000Y7630000D03*
X22500000Y7630000D03*
X16150000Y7630000D03*
X33930000Y7630000D03*
X27580000Y7630000D03*
X21230000Y7630000D03*
X14880000Y7630000D03*
X32660000Y7630000D03*
X26310000Y7630000D03*
X19960000Y7630000D03*
X13610000Y7630000D03*
X36470000Y3310000D03*
X30120000Y3310000D03*
X23770000Y3310000D03*
X17420000Y3310000D03*
X35200000Y3310000D03*
X28850000Y3310000D03*
X22500000Y3310000D03*
X16150000Y3310000D03*
X33930000Y3310000D03*
X27580000Y3310000D03*
X21230000Y3310000D03*
X14880000Y3310000D03*
X32660000Y3310000D03*
X26310000Y3310000D03*
X19960000Y3310000D03*
X13610000Y3310000D03*
D12*
X15000000Y13000000D03*
D13*
X12460000Y13000000D03*
D12*
X40200000Y7300000D03*
D13*
X40200000Y4760000D03*
D12*
X29600000Y13100000D03*
D13*
X27060000Y13100000D03*
D12*
X10500000Y6500000D03*
D13*
X10500000Y3960000D03*
D12*
X22300000Y13100000D03*
D13*
X19760000Y13100000D03*
D14*
X45700000Y13200000D03*
D15*
X43160000Y13200000D03*
X40620000Y13200000D03*
X38080000Y13200000D03*
D16*
X33930000Y3310000D02*
X33930000Y7630000D01*
X33930000Y7630000D02*
X33930000Y9230000D01*
X33930000Y9230000D02*
X34300000Y9600000D01*
X34300000Y9600000D02*
X37900000Y9600000D01*
X37900000Y9600000D02*
X40200000Y7300000D01*
D17*
X40200000Y6940000D02*
X40200000Y7500000D01*
D18*
X15000000Y13000000D02*
X15000000Y14300000D01*
X36380000Y14900000D02*
X38080000Y13200000D01*
X15600000Y14900000D02*
X36380000Y14900000D01*
X15000000Y14300000D02*
X15600000Y14900000D01*
X17420000Y7630000D02*
X17420000Y9880000D01*
X17420000Y9880000D02*
X15000000Y12300000D01*
X15000000Y12300000D02*
X15000000Y13000000D01*
X17420000Y3060000D02*
X17420000Y7380000D01*
D17*
X17420000Y7380000D02*
X17400000Y7400000D01*
D18*
X22500000Y7630000D02*
X22500000Y12900000D01*
X22500000Y12900000D02*
X22300000Y13100000D01*
X22500000Y3060000D02*
X22500000Y7380000D01*
D17*
X22500000Y7380000D02*
X22300000Y7580000D01*
D18*
X21230000Y3060000D02*
X21230000Y7380000D01*
D17*
X21230000Y7380000D02*
X21200000Y7410000D01*
D18*
X21200000Y7410000D02*
X21200000Y9900000D01*
X19760000Y11340000D02*
X19760000Y13100000D01*
X21200000Y9900000D02*
X19760000Y11340000D01*
X14880000Y7630000D02*
X14880000Y8791642D01*
X10500000Y8600000D02*
X10500000Y6500000D01*
X12000000Y10100000D02*
X10500000Y8600000D01*
X13571642Y10100000D02*
X12000000Y10100000D01*
X14880000Y8791642D02*
X13571642Y10100000D01*
X14880000Y7380000D02*
X14880000Y3060000D01*
X26310000Y3060000D02*
X26310000Y7380000D01*
D17*
X26310000Y7380000D02*
X26300000Y7390000D01*
D18*
X26300000Y7390000D02*
X26300000Y12340000D01*
X26300000Y12340000D02*
X27060000Y13100000D01*
X13610000Y3310000D02*
X11910000Y3310000D01*
X11910000Y3310000D02*
X11260000Y3960000D01*
D17*
X11260000Y3960000D02*
X10500000Y3960000D01*
D18*
X13610000Y7380000D02*
X13610000Y3060000D01*
X16150000Y7630000D02*
X16150000Y9250000D01*
X12460000Y11440000D02*
X12460000Y13000000D01*
X12700000Y11200000D02*
X12460000Y11440000D01*
X14200000Y11200000D02*
X12700000Y11200000D01*
X16150000Y9250000D02*
X14200000Y11200000D01*
X32660000Y3310000D02*
X32660000Y7610002D01*
X32660000Y7610002D02*
X32679998Y7630000D01*
X32679998Y7630000D02*
X32660000Y7630000D01*
X43160000Y13200000D02*
X43160000Y5660000D01*
X43160000Y5660000D02*
X42260000Y4760000D01*
X42260000Y4760000D02*
X40200000Y4760000D01*
X40200000Y4760000D02*
X40200000Y2600000D01*
X39000000Y1800000D02*
X36800000Y1800000D01*
X36800000Y1800000D02*
X36470000Y2130000D01*
X36470000Y2130000D02*
X36470000Y3060000D01*
X40200000Y2600000D02*
X39400000Y1800000D01*
X39400000Y1800000D02*
X39000000Y1800000D01*
X27580000Y7380000D02*
X27580000Y9080000D01*
X27580000Y9080000D02*
X29600000Y11100000D01*
X29600000Y11100000D02*
X29600000Y13100000D01*
X32660000Y3060000D02*
X32660000Y2140000D01*
X32660000Y2140000D02*
X33000000Y1800000D01*
X33000000Y1800000D02*
X34900000Y1800000D01*
X34900000Y1800000D02*
X35200000Y2100000D01*
D17*
X35200000Y2100000D02*
X35200000Y3060000D01*
X27580000Y3060000D02*
X27580000Y2180000D01*
D18*
X27580000Y2180000D02*
X27960000Y1800000D01*
X27960000Y1800000D02*
X32300000Y1800000D01*
X32300000Y1800000D02*
X32660000Y2160000D01*
X32660000Y2160000D02*
X32660000Y3060000D01*
X16150000Y3060000D02*
X16150000Y7380000D01*
D17*
X16150000Y7380000D02*
X16100000Y7430000D01*
D18*
X16150000Y2250000D02*
X16600000Y1800000D01*
X16150000Y3060000D02*
X16150000Y2250000D01*
X19600000Y1800000D02*
X19960000Y2160000D01*
X16600000Y1800000D02*
X19600000Y1800000D01*
X19960000Y7380000D02*
X19960000Y3060000D01*
X20300000Y1820000D02*
X23320000Y1820000D01*
X19960000Y2160000D02*
X20300000Y1820000D01*
X23770000Y2270000D02*
X23770000Y3060000D01*
X23320000Y1820000D02*
X23770000Y2270000D01*
D17*
X19960000Y3060000D02*
X19960000Y2160000D01*
D18*
X23770000Y3060000D02*
X23770000Y7380000D01*
X23770000Y2230000D02*
X24200000Y1800000D01*
X24200000Y1800000D02*
X27200000Y1800000D01*
X27200000Y1800000D02*
X27580000Y2180000D01*
X23770000Y3060000D02*
X23770000Y2230000D01*
X27580000Y2180000D02*
X27580000Y7380000D01*
X35200000Y3060000D02*
X35200000Y7380000D01*
D17*
X35100000Y2960000D02*
X35200000Y3060000D01*
D18*
X35200000Y2100000D02*
X35500000Y1800000D01*
X35500000Y1800000D02*
X36200000Y1800000D01*
X36200000Y1800000D02*
X36470000Y2070000D01*
X36470000Y2070000D02*
X36470000Y3060000D01*
D17*
X35200000Y3060000D02*
X35200000Y2100000D01*
D18*
X36470000Y7380000D02*
X36470000Y3060000D01*
D17*
G36*
X16493000Y9496024D02*
X14695287Y11293737D01*
X13984000Y11293737D01*
X13725862Y11343822D01*
X13498983Y11492857D01*
X13412055Y11621636D01*
X13331582Y11548578D01*
X12870008Y11357397D01*
X12608000Y11483455D01*
X12608000Y12852000D01*
X12628000Y12852000D01*
X12628000Y13148000D01*
X12608000Y13148000D01*
X12608000Y13168000D01*
X12312000Y13168000D01*
X12312000Y13148000D01*
X12312000Y12852000D01*
X12312000Y11483455D01*
X12049992Y11357397D01*
X11588418Y11548578D01*
X11099328Y11992601D01*
X10817388Y12589991D01*
X10942722Y12852000D01*
X12312000Y12852000D01*
X12312000Y13148000D01*
X10942722Y13148000D01*
X10817388Y13410009D01*
X11099328Y14007399D01*
X11588418Y14451422D01*
X11866495Y14566600D01*
X11127000Y14566600D01*
X11127000Y14478402D01*
X8827000Y14378402D01*
X8827000Y8622100D01*
X8864131Y8435431D01*
X8864131Y8151769D01*
X8827000Y7965099D01*
X8827000Y7687437D01*
X8843822Y7774138D01*
X8992857Y8001017D01*
X9217848Y8152888D01*
X9484000Y8206263D01*
X9573000Y8206263D01*
X9573000Y8600000D01*
X9643564Y8954748D01*
X9844512Y9255488D01*
X11344512Y10755488D01*
X11645252Y10956436D01*
X11645253Y10956436D01*
X12000000Y11027000D01*
X13571642Y11027000D01*
X13926389Y10956436D01*
X13926390Y10956436D01*
X14227130Y10755488D01*
X15535488Y9447130D01*
X15736436Y9146390D01*
X15736437Y9146389D01*
X15760184Y9027000D01*
X16493000Y9027000D01*
X16493000Y9496024D01*
X16493000Y9496024D01*
G37*
X16493000Y9496024D02*
X14695287Y11293737D01*
X13984000Y11293737D01*
X13725862Y11343822D01*
X13498983Y11492857D01*
X13412055Y11621636D01*
X13331582Y11548578D01*
X12870008Y11357397D01*
X12608000Y11483455D01*
X12608000Y12852000D01*
X12628000Y12852000D01*
X12628000Y13148000D01*
X12608000Y13148000D01*
X12608000Y13168000D01*
X12312000Y13168000D01*
X12312000Y13148000D01*
X12312000Y12852000D01*
X12312000Y11483455D01*
X12049992Y11357397D01*
X11588418Y11548578D01*
X11099328Y11992601D01*
X10817388Y12589991D01*
X10942722Y12852000D01*
X12312000Y12852000D01*
X12312000Y13148000D01*
X10942722Y13148000D01*
X10817388Y13410009D01*
X11099328Y14007399D01*
X11588418Y14451422D01*
X11866495Y14566600D01*
X11127000Y14566600D01*
X11127000Y14478402D01*
X8827000Y14378402D01*
X8827000Y8622100D01*
X8864131Y8435431D01*
X8864131Y8151769D01*
X8827000Y7965099D01*
X8827000Y7687437D01*
X8843822Y7774138D01*
X8992857Y8001017D01*
X9217848Y8152888D01*
X9484000Y8206263D01*
X9573000Y8206263D01*
X9573000Y8600000D01*
X9643564Y8954748D01*
X9844512Y9255488D01*
X11344512Y10755488D01*
X11645252Y10956436D01*
X11645253Y10956436D01*
X12000000Y11027000D01*
X13571642Y11027000D01*
X13926389Y10956436D01*
X13926390Y10956436D01*
X14227130Y10755488D01*
X15535488Y9447130D01*
X15736436Y9146390D01*
X15736437Y9146389D01*
X15760184Y9027000D01*
X16493000Y9027000D01*
X16493000Y9496024D01*
G36*
X47173000Y11879008D02*
X47054743Y11698983D01*
X46829752Y11547112D01*
X46563600Y11493737D01*
X44836400Y11493737D01*
X44578262Y11543822D01*
X44351383Y11692857D01*
X44199512Y11917848D01*
X44194976Y11940463D01*
X44069225Y11803644D01*
X43546066Y11556157D01*
X43308000Y11684260D01*
X43308000Y13052000D01*
X43328000Y13052000D01*
X43328000Y13348000D01*
X43308000Y13348000D01*
X43308000Y13368000D01*
X43012000Y13368000D01*
X43012000Y13348000D01*
X42992000Y13348000D01*
X42992000Y13052000D01*
X43012000Y13052000D01*
X43012000Y11684260D01*
X42773934Y11556157D01*
X42250775Y11803644D01*
X41890299Y12195844D01*
X41709369Y11925063D01*
X41209562Y11591103D01*
X40620000Y11473832D01*
X40030438Y11591103D01*
X39530631Y11925063D01*
X39350000Y12195396D01*
X39169369Y11925063D01*
X38669562Y11591103D01*
X38080000Y11473832D01*
X37490438Y11591103D01*
X36990631Y11925063D01*
X36656671Y12424870D01*
X36539400Y13014432D01*
X36539400Y13385568D01*
X36546709Y13422314D01*
X35996024Y13973000D01*
X31293000Y13973000D01*
X31293000Y13417250D01*
X31293000Y12782750D01*
X31293000Y11949336D01*
X31189933Y11700510D01*
X30999489Y11510067D01*
X30750663Y11407000D01*
X30481336Y11407000D01*
X29917250Y11407000D01*
X29748000Y11576250D01*
X29748000Y12952000D01*
X31123750Y12952000D01*
X31293000Y12782750D01*
X31293000Y13417250D01*
X31123750Y13248000D01*
X29748000Y13248000D01*
X29748000Y13268000D01*
X29452000Y13268000D01*
X29452000Y13248000D01*
X29432000Y13248000D01*
X29432000Y12952000D01*
X29452000Y12952000D01*
X29452000Y11576250D01*
X29282750Y11407000D01*
X28718664Y11407000D01*
X28449337Y11407000D01*
X28200511Y11510067D01*
X28010067Y11700510D01*
X28008734Y11703726D01*
X27707883Y11502704D01*
X27227000Y11407050D01*
X27227000Y9027000D01*
X32878000Y9027000D01*
X32878000Y9230000D01*
X32958079Y9632583D01*
X33186124Y9973876D01*
X33556124Y10343876D01*
X33897417Y10571921D01*
X34300000Y10652000D01*
X37900000Y10652000D01*
X38302583Y10571921D01*
X38643876Y10343876D01*
X39981489Y9006263D01*
X41216000Y9006263D01*
X41474138Y8956178D01*
X41701017Y8807143D01*
X41852888Y8582152D01*
X41906263Y8316000D01*
X41906263Y6284000D01*
X41856178Y6025862D01*
X41707143Y5798983D01*
X41578363Y5712055D01*
X41651422Y5631582D01*
X41653319Y5627000D01*
X47173000Y5627000D01*
X47173000Y10900000D01*
X47173000Y11879008D01*
X47173000Y11879008D01*
G37*
X47173000Y11879008D02*
X47054743Y11698983D01*
X46829752Y11547112D01*
X46563600Y11493737D01*
X44836400Y11493737D01*
X44578262Y11543822D01*
X44351383Y11692857D01*
X44199512Y11917848D01*
X44194976Y11940463D01*
X44069225Y11803644D01*
X43546066Y11556157D01*
X43308000Y11684260D01*
X43308000Y13052000D01*
X43328000Y13052000D01*
X43328000Y13348000D01*
X43308000Y13348000D01*
X43308000Y13368000D01*
X43012000Y13368000D01*
X43012000Y13348000D01*
X42992000Y13348000D01*
X42992000Y13052000D01*
X43012000Y13052000D01*
X43012000Y11684260D01*
X42773934Y11556157D01*
X42250775Y11803644D01*
X41890299Y12195844D01*
X41709369Y11925063D01*
X41209562Y11591103D01*
X40620000Y11473832D01*
X40030438Y11591103D01*
X39530631Y11925063D01*
X39350000Y12195396D01*
X39169369Y11925063D01*
X38669562Y11591103D01*
X38080000Y11473832D01*
X37490438Y11591103D01*
X36990631Y11925063D01*
X36656671Y12424870D01*
X36539400Y13014432D01*
X36539400Y13385568D01*
X36546709Y13422314D01*
X35996024Y13973000D01*
X31293000Y13973000D01*
X31293000Y13417250D01*
X31293000Y12782750D01*
X31293000Y11949336D01*
X31189933Y11700510D01*
X30999489Y11510067D01*
X30750663Y11407000D01*
X30481336Y11407000D01*
X29917250Y11407000D01*
X29748000Y11576250D01*
X29748000Y12952000D01*
X31123750Y12952000D01*
X31293000Y12782750D01*
X31293000Y13417250D01*
X31123750Y13248000D01*
X29748000Y13248000D01*
X29748000Y13268000D01*
X29452000Y13268000D01*
X29452000Y13248000D01*
X29432000Y13248000D01*
X29432000Y12952000D01*
X29452000Y12952000D01*
X29452000Y11576250D01*
X29282750Y11407000D01*
X28718664Y11407000D01*
X28449337Y11407000D01*
X28200511Y11510067D01*
X28010067Y11700510D01*
X28008734Y11703726D01*
X27707883Y11502704D01*
X27227000Y11407050D01*
X27227000Y9027000D01*
X32878000Y9027000D01*
X32878000Y9230000D01*
X32958079Y9632583D01*
X33186124Y9973876D01*
X33556124Y10343876D01*
X33897417Y10571921D01*
X34300000Y10652000D01*
X37900000Y10652000D01*
X38302583Y10571921D01*
X38643876Y10343876D01*
X39981489Y9006263D01*
X41216000Y9006263D01*
X41474138Y8956178D01*
X41701017Y8807143D01*
X41852888Y8582152D01*
X41906263Y8316000D01*
X41906263Y6284000D01*
X41856178Y6025862D01*
X41707143Y5798983D01*
X41578363Y5712055D01*
X41651422Y5631582D01*
X41653319Y5627000D01*
X47173000Y5627000D01*
X47173000Y10900000D01*
X47173000Y11879008D01*
D19*
G36*
X54586100Y14287198D02*
X54513751Y14650920D01*
X54311343Y14953846D01*
X54008420Y15156251D01*
X53644698Y15228600D01*
X53114851Y15228600D01*
X53114851Y8306281D01*
X53114851Y8280919D01*
X53000670Y7706894D01*
X52990965Y7683463D01*
X52665806Y7196828D01*
X52647872Y7178895D01*
X52161237Y6853735D01*
X52137806Y6844030D01*
X51703783Y6757697D01*
X51697062Y6747638D01*
X51675974Y6733548D01*
X51651100Y6728600D01*
X49651100Y6728600D01*
X49644821Y6729849D01*
X49638419Y6729849D01*
X49064394Y6844030D01*
X49040963Y6853735D01*
X48554328Y7178894D01*
X48536395Y7196828D01*
X48211235Y7683463D01*
X48201530Y7706894D01*
X48087349Y8280919D01*
X48087349Y8280920D01*
X48087349Y8306280D01*
X48087349Y8306281D01*
X48201530Y8880306D01*
X48211235Y8903737D01*
X48536395Y9390372D01*
X48554328Y9408306D01*
X49040963Y9733465D01*
X49064394Y9743170D01*
X49638419Y9857351D01*
X49644821Y9857351D01*
X49651100Y9858600D01*
X51651100Y9858600D01*
X51675974Y9853652D01*
X51697062Y9839562D01*
X51703783Y9829502D01*
X52137806Y9743170D01*
X52161237Y9733465D01*
X52161237Y9733464D01*
X52647872Y9408305D01*
X52665805Y9390372D01*
X52665806Y9390372D01*
X52990964Y8903737D01*
X52990965Y8903737D01*
X53000670Y8880306D01*
X53114851Y8306281D01*
X53114851Y15228600D01*
X47315000Y15228600D01*
X47315000Y10900000D01*
X47315000Y5485000D01*
X41550935Y5485000D01*
X41570467Y5460283D01*
X41664223Y5233889D01*
X41664223Y4286111D01*
X41570467Y4059717D01*
X41198160Y3588568D01*
X40673892Y3295759D01*
X40439000Y3370403D01*
X40439000Y4521000D01*
X41587821Y4521000D01*
X41664223Y4286111D01*
X41664223Y5233889D01*
X41587821Y4999000D01*
X40439000Y4999000D01*
X40439000Y5019000D01*
X39961000Y5019000D01*
X39961000Y4999000D01*
X39941000Y4999000D01*
X39941000Y4521000D01*
X39961000Y4521000D01*
X39961000Y3370403D01*
X39726108Y3295759D01*
X39215000Y3581218D01*
X39215000Y2085049D01*
X8685000Y1984951D01*
X8685000Y14514362D01*
X10985000Y14614362D01*
X10985000Y15228600D01*
X8214851Y15228600D01*
X8214851Y8306281D01*
X8214851Y8280919D01*
X8100670Y7706894D01*
X8090965Y7683463D01*
X7765806Y7196828D01*
X7747872Y7178895D01*
X7261237Y6853735D01*
X7237806Y6844030D01*
X6663781Y6729849D01*
X6657378Y6729849D01*
X6651100Y6728600D01*
X4651100Y6728600D01*
X4644821Y6729849D01*
X4638419Y6729849D01*
X4064394Y6844030D01*
X4040963Y6853735D01*
X3554328Y7178894D01*
X3536395Y7196828D01*
X3211235Y7683463D01*
X3201530Y7706894D01*
X3087349Y8280919D01*
X3087349Y8280920D01*
X3087349Y8306280D01*
X3087349Y8306281D01*
X3201530Y8880306D01*
X3211235Y8903737D01*
X3536395Y9390372D01*
X3554328Y9408306D01*
X4040963Y9733465D01*
X4064394Y9743170D01*
X4638419Y9857351D01*
X4644821Y9857351D01*
X4651100Y9858600D01*
X6651100Y9858600D01*
X6657378Y9857351D01*
X6663781Y9857351D01*
X7237806Y9743170D01*
X7261237Y9733465D01*
X7261237Y9733464D01*
X7747872Y9408305D01*
X7765805Y9390372D01*
X7765806Y9390372D01*
X8090964Y8903737D01*
X8090965Y8903737D01*
X8100670Y8880306D01*
X8214851Y8306281D01*
X8214851Y15228600D01*
X2657501Y15228600D01*
X2293779Y15156251D01*
X1990853Y14953843D01*
X1788448Y14650920D01*
X1716100Y14287198D01*
X1716100Y2300001D01*
X1788448Y1936279D01*
X1990853Y1633356D01*
X2293779Y1430948D01*
X2657501Y1358600D01*
X53644698Y1358600D01*
X54008420Y1430948D01*
X54311343Y1633353D01*
X54513751Y1936279D01*
X54586100Y2300001D01*
X54586100Y14287198D01*
X54586100Y14287198D01*
G37*
X54586100Y14287198D02*
X54513751Y14650920D01*
X54311343Y14953846D01*
X54008420Y15156251D01*
X53644698Y15228600D01*
X53114851Y15228600D01*
X53114851Y8306281D01*
X53114851Y8280919D01*
X53000670Y7706894D01*
X52990965Y7683463D01*
X52665806Y7196828D01*
X52647872Y7178895D01*
X52161237Y6853735D01*
X52137806Y6844030D01*
X51703783Y6757697D01*
X51697062Y6747638D01*
X51675974Y6733548D01*
X51651100Y6728600D01*
X49651100Y6728600D01*
X49644821Y6729849D01*
X49638419Y6729849D01*
X49064394Y6844030D01*
X49040963Y6853735D01*
X48554328Y7178894D01*
X48536395Y7196828D01*
X48211235Y7683463D01*
X48201530Y7706894D01*
X48087349Y8280919D01*
X48087349Y8280920D01*
X48087349Y8306280D01*
X48087349Y8306281D01*
X48201530Y8880306D01*
X48211235Y8903737D01*
X48536395Y9390372D01*
X48554328Y9408306D01*
X49040963Y9733465D01*
X49064394Y9743170D01*
X49638419Y9857351D01*
X49644821Y9857351D01*
X49651100Y9858600D01*
X51651100Y9858600D01*
X51675974Y9853652D01*
X51697062Y9839562D01*
X51703783Y9829502D01*
X52137806Y9743170D01*
X52161237Y9733465D01*
X52161237Y9733464D01*
X52647872Y9408305D01*
X52665805Y9390372D01*
X52665806Y9390372D01*
X52990964Y8903737D01*
X52990965Y8903737D01*
X53000670Y8880306D01*
X53114851Y8306281D01*
X53114851Y15228600D01*
X47315000Y15228600D01*
X47315000Y10900000D01*
X47315000Y5485000D01*
X41550935Y5485000D01*
X41570467Y5460283D01*
X41664223Y5233889D01*
X41664223Y4286111D01*
X41570467Y4059717D01*
X41198160Y3588568D01*
X40673892Y3295759D01*
X40439000Y3370403D01*
X40439000Y4521000D01*
X41587821Y4521000D01*
X41664223Y4286111D01*
X41664223Y5233889D01*
X41587821Y4999000D01*
X40439000Y4999000D01*
X40439000Y5019000D01*
X39961000Y5019000D01*
X39961000Y4999000D01*
X39941000Y4999000D01*
X39941000Y4521000D01*
X39961000Y4521000D01*
X39961000Y3370403D01*
X39726108Y3295759D01*
X39215000Y3581218D01*
X39215000Y2085049D01*
X8685000Y1984951D01*
X8685000Y14514362D01*
X10985000Y14614362D01*
X10985000Y15228600D01*
X8214851Y15228600D01*
X8214851Y8306281D01*
X8214851Y8280919D01*
X8100670Y7706894D01*
X8090965Y7683463D01*
X7765806Y7196828D01*
X7747872Y7178895D01*
X7261237Y6853735D01*
X7237806Y6844030D01*
X6663781Y6729849D01*
X6657378Y6729849D01*
X6651100Y6728600D01*
X4651100Y6728600D01*
X4644821Y6729849D01*
X4638419Y6729849D01*
X4064394Y6844030D01*
X4040963Y6853735D01*
X3554328Y7178894D01*
X3536395Y7196828D01*
X3211235Y7683463D01*
X3201530Y7706894D01*
X3087349Y8280919D01*
X3087349Y8280920D01*
X3087349Y8306280D01*
X3087349Y8306281D01*
X3201530Y8880306D01*
X3211235Y8903737D01*
X3536395Y9390372D01*
X3554328Y9408306D01*
X4040963Y9733465D01*
X4064394Y9743170D01*
X4638419Y9857351D01*
X4644821Y9857351D01*
X4651100Y9858600D01*
X6651100Y9858600D01*
X6657378Y9857351D01*
X6663781Y9857351D01*
X7237806Y9743170D01*
X7261237Y9733465D01*
X7261237Y9733464D01*
X7747872Y9408305D01*
X7765805Y9390372D01*
X7765806Y9390372D01*
X8090964Y8903737D01*
X8090965Y8903737D01*
X8100670Y8880306D01*
X8214851Y8306281D01*
X8214851Y15228600D01*
X2657501Y15228600D01*
X2293779Y15156251D01*
X1990853Y14953843D01*
X1788448Y14650920D01*
X1716100Y14287198D01*
X1716100Y2300001D01*
X1788448Y1936279D01*
X1990853Y1633356D01*
X2293779Y1430948D01*
X2657501Y1358600D01*
X53644698Y1358600D01*
X54008420Y1430948D01*
X54311343Y1633353D01*
X54513751Y1936279D01*
X54586100Y2300001D01*
X54586100Y14287198D01*
M02*
