999
dxfrw 0.5.10
0
SECTION
2
HEADER
9
$ACADVER
1
AC1021
9
$HANDSEED
5
20000
9
$DWGCODEPAGE
3
ANSI_1252
9
$INSBASE
10
0
20
0
30
0
9
$EXTMIN
10
1.6011
20
1.2436
30
0
9
$EXTMAX
10
54.7011
20
15.3436
30
0
9
$LIMMIN
10
0
20
0
9
$LIMMAX
10
420
20
297
9
$ORTHOMODE
70
0
9
$LTSCALE
40
1
9
$TEXTSTYLE
7
STANDARD
9
$CLAYER
8
Hole1
9
$DIMASZ
40
2.5
9
$DIMLFAC
40
1
9
$DIMSCALE
40
1
9
$DIMEXO
40
0.625
9
$DIMEXE
40
1.25
9
$DIMTXT
40
2.5
9
$DIMTSZ
40
0
9
$DIMAUNIT
70
0
9
$DIMADEC
70
0
9
$DIMLUNIT
70
2
9
$DIMSTYLE
2
Standard
9
$DIMGAP
40
0.625
9
$DIMTIH
70
0
9
$LUNITS
70
2
9
$LUPREC
70
4
9
$AUNITS
70
0
9
$AUPREC
70
2
9
$SPLINESEGS
70
8
9
$SNAPSTYLE
70
0
9
$PINSBASE
10
0
20
0
30
0
9
$PLIMMIN
10
0
20
0
9
$PLIMMAX
10
210
20
297
9
$INSUNITS
70
4
9
$PSVPSCALE
40
1
0
ENDSEC
0
SECTION
2
CLASSES
0
ENDSEC
0
SECTION
2
TABLES
0
TABLE
2
VPORT
5
8
330
0
100
AcDbSymbolTable
70
1
0
VPORT
5
31
330
2
100
AcDbSymbolTableRecord
100
AcDbViewportTableRecord
2
*ACTIVE
70
0
10
0
20
0
11
1
21
1
12
39.190528
22
13.6052736
13
0
23
0
14
10
24
10
15
10
25
10
16
0
26
0
36
1
17
0
27
0
37
0
40
36.4904448
41
2.30890804598
42
50
43
0
44
0
50
0
51
0
71
0
72
100
73
1
74
3
75
0
76
1
77
0
78
0
281
0
65
1
110
0
120
0
130
0
111
1
121
0
131
0
112
0
122
1
132
0
79
0
146
0
348
10020
60
7
61
5
292
1
282
1
141
0
142
0
63
250
421
3358443
0
ENDTAB
0
TABLE
2
LTYPE
5
5
330
0
100
AcDbSymbolTable
70
4
0
LTYPE
5
14
330
5
100
AcDbSymbolTableRecord
100
AcDbLinetypeTableRecord
2
ByBlock
70
0
3

72
65
73
0
40
0
0
LTYPE
5
15
330
5
100
AcDbSymbolTableRecord
100
AcDbLinetypeTableRecord
2
ByLayer
70
0
3

72
65
73
0
40
0
0
LTYPE
5
16
330
5
100
AcDbSymbolTableRecord
100
AcDbLinetypeTableRecord
2
Continuous
70
0
3
Solid line
72
65
73
0
40
0
0
LTYPE
5
32
330
5
100
AcDbSymbolTableRecord
100
AcDbLinetypeTableRecord
2
DOT
70
0
3
Dot . . . . . . . . . . . . . . . . . . . . . .
72
65
73
2
40
6.35
49
0
74
0
49
-6.35
74
0
0
LTYPE
5
33
330
5
100
AcDbSymbolTableRecord
100
AcDbLinetypeTableRecord
2
DOT2
70
0
3
Dot (.5x) .....................................
72
65
73
2
40
3.175
49
0
74
0
49
-3.175
74
0
0
LTYPE
5
34
330
5
100
AcDbSymbolTableRecord
100
AcDbLinetypeTableRecord
2
DOTX2
70
0
3
Dot (2x) .  .  .  .  .  .  .  .  .  .  .  .  .
72
65
73
2
40
12.7
49
0
74
0
49
-12.7
74
0
0
LTYPE
5
35
330
5
100
AcDbSymbolTableRecord
100
AcDbLinetypeTableRecord
2
DASHED
70
0
3
Dot . . . . . . . . . . . . . . . . . . . . . .
72
65
73
2
40
19.05
49
12.7
74
0
49
-6.35
74
0
0
LTYPE
5
36
330
5
100
AcDbSymbolTableRecord
100
AcDbLinetypeTableRecord
2
DASHED2
70
0
3
Dashed (.5x) _ _ _ _ _ _ _ _ _ _ _ _ _ _ _ _ _
72
65
73
2
40
9.525
49
6.35
74
0
49
-3.175
74
0
0
LTYPE
5
37
330
5
100
AcDbSymbolTableRecord
100
AcDbLinetypeTableRecord
2
DASHEDX2
70
0
3
Dashed (2x) ____  ____  ____  ____  ____  ___
72
65
73
2
40
38.1
49
25.4
74
0
49
-12.7
74
0
0
LTYPE
5
38
330
5
100
AcDbSymbolTableRecord
100
AcDbLinetypeTableRecord
2
DASHDOT
70
0
3
Dash dot __ . __ . __ . __ . __ . __ . __ . __
72
65
73
4
40
25.4
49
12.7
74
0
49
-6.35
74
0
49
0
74
0
49
-6.35
74
0
0
LTYPE
5
39
330
5
100
AcDbSymbolTableRecord
100
AcDbLinetypeTableRecord
2
DASHDOT2
70
0
3
Dash dot (.5x) _._._._._._._._._._._._._._._.
72
65
73
4
40
12.7
49
6.35
74
0
49
-3.175
74
0
49
0
74
0
49
-3.175
74
0
0
LTYPE
5
3A
330
5
100
AcDbSymbolTableRecord
100
AcDbLinetypeTableRecord
2
DASHDOTX2
70
0
3
Dash dot (2x) ____  .  ____  .  ____  .  ___
72
65
73
4
40
50.8
49
25.4
74
0
49
-12.7
74
0
49
0
74
0
49
-12.7
74
0
0
LTYPE
5
3B
330
5
100
AcDbSymbolTableRecord
100
AcDbLinetypeTableRecord
2
DIVIDE
70
0
3
Divide ____ . . ____ . . ____ . . ____ . . ____
72
65
73
6
40
31.75
49
12.7
74
0
49
-6.35
74
0
49
0
74
0
49
-6.35
74
0
49
0
74
0
49
-6.35
74
0
0
LTYPE
5
3C
330
5
100
AcDbSymbolTableRecord
100
AcDbLinetypeTableRecord
2
DIVIDE2
70
0
3
Divide (.5x) __..__..__..__..__..__..__..__.._
72
65
73
6
40
15.875
49
6.35
74
0
49
-3.175
74
0
49
0
74
0
49
-3.175
74
0
49
0
74
0
49
-3.175
74
0
0
LTYPE
5
3D
330
5
100
AcDbSymbolTableRecord
100
AcDbLinetypeTableRecord
2
DIVIDEX2
70
0
3
Divide (2x) ________  .  .  ________  .  .  _
72
65
73
6
40
63.5
49
25.4
74
0
49
-12.7
74
0
49
0
74
0
49
-12.7
74
0
49
0
74
0
49
-12.7
74
0
0
LTYPE
5
3E
330
5
100
AcDbSymbolTableRecord
100
AcDbLinetypeTableRecord
2
BORDER
70
0
3
Border __ __ . __ __ . __ __ . __ __ . __ __ .
72
65
73
6
40
44.45
49
12.7
74
0
49
-6.35
74
0
49
12.7
74
0
49
-6.35
74
0
49
0
74
0
49
-6.35
74
0
0
LTYPE
5
3F
330
5
100
AcDbSymbolTableRecord
100
AcDbLinetypeTableRecord
2
BORDER2
70
0
3
Border (.5x) __.__.__.__.__.__.__.__.__.__.__.
72
65
73
6
40
22.225
49
6.35
74
0
49
-3.175
74
0
49
6.35
74
0
49
-3.175
74
0
49
0
74
0
49
-3.175
74
0
0
LTYPE
5
40
330
5
100
AcDbSymbolTableRecord
100
AcDbLinetypeTableRecord
2
BORDERX2
70
0
3
Border (2x) ____  ____  .  ____  ____  .  ___
72
65
73
6
40
88.9
49
25.4
74
0
49
-12.7
74
0
49
25.4
74
0
49
-12.7
74
0
49
0
74
0
49
-12.7
74
0
0
LTYPE
5
41
330
5
100
AcDbSymbolTableRecord
100
AcDbLinetypeTableRecord
2
CENTER
70
0
3
Center ____ _ ____ _ ____ _ ____ _ ____ _ ____
72
65
73
4
40
50.8
49
31.75
74
0
49
-6.35
74
0
49
6.35
74
0
49
-6.35
74
0
0
LTYPE
5
42
330
5
100
AcDbSymbolTableRecord
100
AcDbLinetypeTableRecord
2
CENTER2
70
0
3
Center (.5x) ___ _ ___ _ ___ _ ___ _ ___ _ ___
72
65
73
4
40
28.575
49
19.05
74
0
49
-3.175
74
0
49
3.175
74
0
49
-3.175
74
0
0
LTYPE
5
43
330
5
100
AcDbSymbolTableRecord
100
AcDbLinetypeTableRecord
2
CENTERX2
70
0
3
Center (2x) ________  __  ________  __  _____
72
65
73
4
40
101.6
49
63.5
74
0
49
-12.7
74
0
49
12.7
74
0
49
-12.7
74
0
0
ENDTAB
0
TABLE
2
LAYER
5
2
330
0
100
AcDbSymbolTable
70
1
0
LAYER
5
10
330
2
100
AcDbSymbolTableRecord
100
AcDbLayerTableRecord
2
0
70
0
62
7
6
CONTINUOUS
370
0
390
F
0
LAYER
5
44
330
2
100
AcDbSymbolTableRecord
100
AcDbLayerTableRecord
2
BLACK
70
0
62
7
6
CONTINUOUS
370
-3
390
F
0
LAYER
5
45
330
2
100
AcDbSymbolTableRecord
100
AcDbLayerTableRecord
2
GRAY1
70
0
62
251
6
CONTINUOUS
370
-3
390
F
0
LAYER
5
46
330
2
100
AcDbSymbolTableRecord
100
AcDbLayerTableRecord
2
GRAY2
70
0
62
8
6
CONTINUOUS
370
-3
390
F
0
LAYER
5
47
330
2
100
AcDbSymbolTableRecord
100
AcDbLayerTableRecord
2
GRAY3
70
0
62
9
6
CONTINUOUS
370
-3
390
F
0
LAYER
5
48
330
2
100
AcDbSymbolTableRecord
100
AcDbLayerTableRecord
2
WHITE
70
0
62
7
6
CONTINUOUS
370
-3
390
F
0
LAYER
5
49
330
2
100
AcDbSymbolTableRecord
100
AcDbLayerTableRecord
2
LYELLOW
70
0
62
51
6
CONTINUOUS
370
-3
390
F
0
LAYER
5
4A
330
2
100
AcDbSymbolTableRecord
100
AcDbLayerTableRecord
2
BLUE1
70
0
62
178
6
CONTINUOUS
370
-3
390
F
0
LAYER
5
4B
330
2
100
AcDbSymbolTableRecord
100
AcDbLayerTableRecord
2
GREEN1
70
0
62
98
6
CONTINUOUS
370
-3
390
F
0
LAYER
5
4C
330
2
100
AcDbSymbolTableRecord
100
AcDbLayerTableRecord
2
CYAN1
70
0
62
138
6
CONTINUOUS
370
-3
390
F
0
LAYER
5
4D
330
2
100
AcDbSymbolTableRecord
100
AcDbLayerTableRecord
2
RED1
70
0
62
18
6
CONTINUOUS
370
-3
390
F
0
LAYER
5
4E
330
2
100
AcDbSymbolTableRecord
100
AcDbLayerTableRecord
2
MAGENTA1
70
0
62
228
6
CONTINUOUS
370
-3
390
F
0
LAYER
5
4F
330
2
100
AcDbSymbolTableRecord
100
AcDbLayerTableRecord
2
BROWN1
70
0
62
58
6
CONTINUOUS
370
-3
390
F
0
LAYER
5
50
330
2
100
AcDbSymbolTableRecord
100
AcDbLayerTableRecord
2
BLUE2
70
0
62
5
6
CONTINUOUS
370
-3
390
F
0
LAYER
5
51
330
2
100
AcDbSymbolTableRecord
100
AcDbLayerTableRecord
2
GREEN2
70
0
62
3
6
CONTINUOUS
370
-3
390
F
0
LAYER
5
52
330
2
100
AcDbSymbolTableRecord
100
AcDbLayerTableRecord
2
CYAN2
70
0
62
4
6
CONTINUOUS
370
-3
390
F
0
LAYER
5
53
330
2
100
AcDbSymbolTableRecord
100
AcDbLayerTableRecord
2
RED2
70
0
62
1
6
CONTINUOUS
370
-3
390
F
0
LAYER
5
54
330
2
100
AcDbSymbolTableRecord
100
AcDbLayerTableRecord
2
MAGENTA2
70
0
62
6
6
CONTINUOUS
370
-3
390
F
0
LAYER
5
55
330
2
100
AcDbSymbolTableRecord
100
AcDbLayerTableRecord
2
BROWN2
70
0
62
54
6
CONTINUOUS
370
-3
390
F
0
LAYER
5
56
330
2
100
AcDbSymbolTableRecord
100
AcDbLayerTableRecord
2
BLUE3
70
0
62
171
6
CONTINUOUS
370
-3
390
F
0
LAYER
5
57
330
2
100
AcDbSymbolTableRecord
100
AcDbLayerTableRecord
2
GREEN3
70
0
62
91
6
CONTINUOUS
370
-3
390
F
0
LAYER
5
58
330
2
100
AcDbSymbolTableRecord
100
AcDbLayerTableRecord
2
CYAN3
70
0
62
131
6
CONTINUOUS
370
-3
390
F
0
LAYER
5
59
330
2
100
AcDbSymbolTableRecord
100
AcDbLayerTableRecord
2
RED3
70
0
62
11
6
CONTINUOUS
370
-3
390
F
0
LAYER
5
5A
330
2
100
AcDbSymbolTableRecord
100
AcDbLayerTableRecord
2
MAGENTA3
70
0
62
221
6
CONTINUOUS
370
-3
390
F
0
LAYER
5
5B
330
2
100
AcDbSymbolTableRecord
100
AcDbLayerTableRecord
2
YELLOW3
70
0
62
2
6
CONTINUOUS
370
-3
390
F
0
LAYER
5
5C
330
2
100
AcDbSymbolTableRecord
100
AcDbLayerTableRecord
2
BLUE4
70
0
62
5
6
CONTINUOUS
370
-3
390
F
0
LAYER
5
5D
330
2
100
AcDbSymbolTableRecord
100
AcDbLayerTableRecord
2
GREEN4
70
0
62
3
6
CONTINUOUS
370
-3
390
F
0
LAYER
5
5E
330
2
100
AcDbSymbolTableRecord
100
AcDbLayerTableRecord
2
CYAN4
70
0
62
4
6
CONTINUOUS
370
-3
390
F
0
LAYER
5
5F
330
2
100
AcDbSymbolTableRecord
100
AcDbLayerTableRecord
2
RED4
70
0
62
1
6
CONTINUOUS
370
-3
390
F
0
LAYER
5
60
330
2
100
AcDbSymbolTableRecord
100
AcDbLayerTableRecord
2
MAGENTA4
70
0
62
6
6
CONTINUOUS
370
-3
390
F
0
LAYER
5
61
330
2
100
AcDbSymbolTableRecord
100
AcDbLayerTableRecord
2
YELLOW4
70
0
62
2
6
CONTINUOUS
370
-3
390
F
0
LAYER
5
62
330
2
100
AcDbSymbolTableRecord
100
AcDbLayerTableRecord
2
Black
70
0
62
7
6
CONTINUOUS
370
-3
390
F
0
LAYER
5
63
330
2
100
AcDbSymbolTableRecord
100
AcDbLayerTableRecord
2
Hole1
70
1
62
7
6
CONTINUOUS
370
0
390
F
0
ENDTAB
0
TABLE
2
STYLE
5
3
330
0
100
AcDbSymbolTable
70
3
0
STYLE
5
64
330
2
100
AcDbSymbolTableRecord
100
AcDbTextStyleTableRecord
2
Standard
70
0
40
0
41
1
50
0
71
0
42
1
3
txt
4

0
ENDTAB
0
TABLE
2
VIEW
5
6
330
0
100
AcDbSymbolTable
70
0
0
ENDTAB
0
TABLE
2
UCS
5
7
330
0
100
AcDbSymbolTable
70
0
0
ENDTAB
0
TABLE
2
APPID
5
9
330
0
100
AcDbSymbolTable
70
1
0
APPID
5
12
330
9
100
AcDbSymbolTableRecord
100
AcDbRegAppTableRecord
2
ACAD
70
0
0
ENDTAB
0
TABLE
2
DIMSTYLE
5
A
330
0
100
AcDbSymbolTable
70
1
100
AcDbDimStyleTable
71
1
0
DIMSTYLE
105
65
330
A
100
AcDbSymbolTableRecord
100
AcDbDimStyleTableRecord
2
Standard
70
0
40
1
41
2.5
42
0.625
43
0.38
44
1.25
45
0
46
0
47
0
48
0
140
2.5
141
0.09
142
0
143
25.4
144
1
145
0
146
1
147
0.625
148
0
71
0
72
0
73
0
74
1
75
0
76
0
77
0
78
0
79
0
170
0
171
2
172
0
173
0
174
0
175
0
176
0
177
0
178
0
179
0
271
4
272
4
273
2
274
2
275
0
276
0
277
2
278
46
279
0
280
0
281
0
282
0
283
1
284
0
285
0
286
0
288
0
289
3
340
Standard
341

371
-2
372
-2
0
ENDTAB
0
TABLE
2
BLOCK_RECORD
5
1
330
0
100
AcDbSymbolTable
70
2
0
BLOCK_RECORD
5
1F
330
1
100
AcDbSymbolTableRecord
100
AcDbBlockTableRecord
2
*Model_Space
70
0
280
1
281
0
0
BLOCK_RECORD
5
1E
330
1
100
AcDbSymbolTableRecord
100
AcDbBlockTableRecord
2
*Paper_Space
70
0
280
1
281
0
0
ENDTAB
0
ENDSEC
0
SECTION
2
BLOCKS
0
BLOCK
5
20
330
1F
100
AcDbEntity
8
0
100
AcDbBlockBegin
2
*Model_Space
70
0
10
0
20
0
30
0
3
*Model_Space
1

0
ENDBLK
5
21
330
1F
100
AcDbEntity
8
0
100
AcDbBlockEnd
0
BLOCK
5
1C
330
1B
100
AcDbEntity
8
0
100
AcDbBlockBegin
2
*Paper_Space
70
0
10
0
20
0
30
0
3
*Paper_Space
1

0
ENDBLK
5
1D
330
1F
100
AcDbEntity
8
0
100
AcDbBlockEnd
0
ENDSEC
0
SECTION
2
ENTITIES
0
LINE
5
66
100
AcDbEntity
8
Black
6
ByLayer
62
256
370
-1
100
AcDbLine
10
52.8971
20
7.5265
11
52.8884
21
7.51146
0
LINE
5
67
100
AcDbEntity
8
Black
6
ByLayer
62
256
370
-1
100
AcDbLine
10
52.8884
20
7.51146
11
52.8884
21
7.51145
0
LINE
5
68
100
AcDbEntity
8
Black
6
ByLayer
62
256
370
-1
100
AcDbLine
10
52.8884
20
7.51145
11
52.5536
21
7.1124
0
LINE
5
69
100
AcDbEntity
8
Black
6
ByLayer
62
256
370
-1
100
AcDbLine
10
52.5536
20
7.1124
11
52.5536
21
7.11239
0
LINE
5
6A
100
AcDbEntity
8
Black
6
ByLayer
62
256
370
-1
100
AcDbLine
10
52.5536
20
7.11239
11
52.5536
21
7.11239
0
LINE
5
6B
100
AcDbEntity
8
Black
6
ByLayer
62
256
370
-1
100
AcDbLine
10
52.5536
20
7.11239
11
52.5469
21
7.10681
0
LINE
5
6C
100
AcDbEntity
8
Black
6
ByLayer
62
256
370
-1
100
AcDbLine
10
52.5469
20
7.10681
11
52.5403
21
7.10123
0
LINE
5
6D
100
AcDbEntity
8
Black
6
ByLayer
62
256
370
-1
100
AcDbLine
10
52.5403
20
7.10123
11
52.5403
21
7.10123
0
LINE
5
6E
100
AcDbEntity
8
Black
6
ByLayer
62
256
370
-1
100
AcDbLine
10
52.5403
20
7.10123
11
52.5403
21
7.10123
0
LINE
5
6F
100
AcDbEntity
8
Black
6
ByLayer
62
256
370
-1
100
AcDbLine
10
52.5403
20
7.10123
11
52.0891
21
6.84076
0
LINE
5
70
100
AcDbEntity
8
Black
6
ByLayer
62
256
370
-1
100
AcDbLine
10
52.0891
20
6.84076
11
52.0891
21
6.84076
0
LINE
5
71
100
AcDbEntity
8
Black
6
ByLayer
62
256
370
-1
100
AcDbLine
10
52.0891
20
6.84076
11
52.0891
21
6.84076
0
LINE
5
72
100
AcDbEntity
8
Black
6
ByLayer
62
256
370
-1
100
AcDbLine
10
52.0891
20
6.84076
11
52.0822
21
6.83825
0
LINE
5
73
100
AcDbEntity
8
Black
6
ByLayer
62
256
370
-1
100
AcDbLine
10
52.0822
20
6.83825
11
52.0728
21
6.83482
0
LINE
5
74
100
AcDbEntity
8
Black
6
ByLayer
62
256
370
-1
100
AcDbLine
10
52.0728
20
6.83482
11
52.0728
21
6.83482
0
LINE
5
75
100
AcDbEntity
8
Black
6
ByLayer
62
256
370
-1
100
AcDbLine
10
52.0728
20
6.83482
11
52.0728
21
6.83482
0
LINE
5
76
100
AcDbEntity
8
Black
6
ByLayer
62
256
370
-1
100
AcDbLine
10
52.0728
20
6.83482
11
51.6939
21
6.76801
0
LINE
5
77
100
AcDbEntity
8
Black
6
ByLayer
62
256
370
-1
100
AcDbLine
10
51.6939
20
6.76801
11
51.6832
21
6.7553
0
LINE
5
78
100
AcDbEntity
8
Black
6
ByLayer
62
256
370
-1
100
AcDbLine
10
51.6832
20
6.7553
11
51.6682
21
6.74661
0
LINE
5
79
100
AcDbEntity
8
Black
6
ByLayer
62
256
370
-1
100
AcDbLine
10
51.6682
20
6.74661
11
51.6511
21
6.7436
0
LINE
5
7A
100
AcDbEntity
8
Black
6
ByLayer
62
256
370
-1
100
AcDbLine
10
51.6511
20
6.7436
11
49.6511
21
6.7436
0
LINE
5
7B
100
AcDbEntity
8
Black
6
ByLayer
62
256
370
-1
100
AcDbLine
10
49.6511
20
6.7436
11
49.6468
21
6.74436
0
LINE
5
7C
100
AcDbEntity
8
Black
6
ByLayer
62
256
370
-1
100
AcDbLine
10
49.6468
20
6.74436
11
49.6424
21
6.74436
0
LINE
5
7D
100
AcDbEntity
8
Black
6
ByLayer
62
256
370
-1
100
AcDbLine
10
49.6424
20
6.74436
11
49.1294
21
6.83482
0
LINE
5
7E
100
AcDbEntity
8
Black
6
ByLayer
62
256
370
-1
100
AcDbLine
10
49.1294
20
6.83482
11
49.1294
21
6.83482
0
LINE
5
7F
100
AcDbEntity
8
Black
6
ByLayer
62
256
370
-1
100
AcDbLine
10
49.1294
20
6.83482
11
49.1294
21
6.83482
0
LINE
5
80
100
AcDbEntity
8
Black
6
ByLayer
62
256
370
-1
100
AcDbLine
10
49.1294
20
6.83482
11
49.12
21
6.83825
0
LINE
5
81
100
AcDbEntity
8
Black
6
ByLayer
62
256
370
-1
100
AcDbLine
10
49.12
20
6.83825
11
49.1131
21
6.84076
0
LINE
5
82
100
AcDbEntity
8
Black
6
ByLayer
62
256
370
-1
100
AcDbLine
10
49.1131
20
6.84076
11
49.1131
21
6.84076
0
LINE
5
83
100
AcDbEntity
8
Black
6
ByLayer
62
256
370
-1
100
AcDbLine
10
49.1131
20
6.84076
11
48.6619
21
7.10123
0
LINE
5
84
100
AcDbEntity
8
Black
6
ByLayer
62
256
370
-1
100
AcDbLine
10
48.6619
20
7.10123
11
48.6619
21
7.10123
0
LINE
5
85
100
AcDbEntity
8
Black
6
ByLayer
62
256
370
-1
100
AcDbLine
10
48.6619
20
7.10123
11
48.6553
21
7.10681
0
LINE
5
86
100
AcDbEntity
8
Black
6
ByLayer
62
256
370
-1
100
AcDbLine
10
48.6553
20
7.10681
11
48.6486
21
7.11239
0
LINE
5
87
100
AcDbEntity
8
Black
6
ByLayer
62
256
370
-1
100
AcDbLine
10
48.6486
20
7.11239
11
48.6486
21
7.1124
0
LINE
5
88
100
AcDbEntity
8
Black
6
ByLayer
62
256
370
-1
100
AcDbLine
10
48.6486
20
7.1124
11
48.3138
21
7.51145
0
LINE
5
89
100
AcDbEntity
8
Black
6
ByLayer
62
256
370
-1
100
AcDbLine
10
48.3138
20
7.51145
11
48.3138
21
7.51146
0
LINE
5
8A
100
AcDbEntity
8
Black
6
ByLayer
62
256
370
-1
100
AcDbLine
10
48.3138
20
7.51146
11
48.3051
21
7.5265
0
LINE
5
8B
100
AcDbEntity
8
Black
6
ByLayer
62
256
370
-1
100
AcDbLine
10
48.3051
20
7.5265
11
48.1269
21
8.01603
0
LINE
5
8C
100
AcDbEntity
8
Black
6
ByLayer
62
256
370
-1
100
AcDbLine
10
48.1269
20
8.01603
11
48.1239
21
8.03313
0
LINE
5
8D
100
AcDbEntity
8
Black
6
ByLayer
62
256
370
-1
100
AcDbLine
10
48.1239
20
8.03313
11
48.1239
21
8.55407
0
LINE
5
8E
100
AcDbEntity
8
Black
6
ByLayer
62
256
370
-1
100
AcDbLine
10
48.1239
20
8.55407
11
48.1269
21
8.57117
0
LINE
5
8F
100
AcDbEntity
8
Black
6
ByLayer
62
256
370
-1
100
AcDbLine
10
48.1269
20
8.57117
11
48.3051
21
9.0607
0
LINE
5
90
100
AcDbEntity
8
Black
6
ByLayer
62
256
370
-1
100
AcDbLine
10
48.3051
20
9.0607
11
48.3138
21
9.07574
0
LINE
5
91
100
AcDbEntity
8
Black
6
ByLayer
62
256
370
-1
100
AcDbLine
10
48.3138
20
9.07574
11
48.3138
21
9.07575
0
LINE
5
92
100
AcDbEntity
8
Black
6
ByLayer
62
256
370
-1
100
AcDbLine
10
48.3138
20
9.07575
11
48.6486
21
9.4748
0
LINE
5
93
100
AcDbEntity
8
Black
6
ByLayer
62
256
370
-1
100
AcDbLine
10
48.6486
20
9.4748
11
48.6486
21
9.47481
0
LINE
5
94
100
AcDbEntity
8
Black
6
ByLayer
62
256
370
-1
100
AcDbLine
10
48.6486
20
9.47481
11
48.6619
21
9.48597
0
LINE
5
95
100
AcDbEntity
8
Black
6
ByLayer
62
256
370
-1
100
AcDbLine
10
48.6619
20
9.48597
11
48.6619
21
9.48597
0
LINE
5
96
100
AcDbEntity
8
Black
6
ByLayer
62
256
370
-1
100
AcDbLine
10
48.6619
20
9.48597
11
49.1131
21
9.74644
0
LINE
5
97
100
AcDbEntity
8
Black
6
ByLayer
62
256
370
-1
100
AcDbLine
10
49.1131
20
9.74644
11
49.1131
21
9.74644
0
LINE
5
98
100
AcDbEntity
8
Black
6
ByLayer
62
256
370
-1
100
AcDbLine
10
49.1131
20
9.74644
11
49.12
21
9.74895
0
LINE
5
99
100
AcDbEntity
8
Black
6
ByLayer
62
256
370
-1
100
AcDbLine
10
49.12
20
9.74895
11
49.1294
21
9.75238
0
LINE
5
9A
100
AcDbEntity
8
Black
6
ByLayer
62
256
370
-1
100
AcDbLine
10
49.1294
20
9.75238
11
49.1294
21
9.75238
0
LINE
5
9B
100
AcDbEntity
8
Black
6
ByLayer
62
256
370
-1
100
AcDbLine
10
49.1294
20
9.75238
11
49.6424
21
9.84284
0
LINE
5
9C
100
AcDbEntity
8
Black
6
ByLayer
62
256
370
-1
100
AcDbLine
10
49.6424
20
9.84284
11
49.6468
21
9.84284
0
LINE
5
9D
100
AcDbEntity
8
Black
6
ByLayer
62
256
370
-1
100
AcDbLine
10
49.6468
20
9.84284
11
49.6511
21
9.8436
0
LINE
5
9E
100
AcDbEntity
8
Black
6
ByLayer
62
256
370
-1
100
AcDbLine
10
49.6511
20
9.8436
11
51.6511
21
9.8436
0
LINE
5
9F
100
AcDbEntity
8
Black
6
ByLayer
62
256
370
-1
100
AcDbLine
10
51.6511
20
9.8436
11
51.6682
21
9.84058
0
LINE
5
A0
100
AcDbEntity
8
Black
6
ByLayer
62
256
370
-1
100
AcDbLine
10
51.6682
20
9.84058
11
51.6832
21
9.8319
0
LINE
5
A1
100
AcDbEntity
8
Black
6
ByLayer
62
256
370
-1
100
AcDbLine
10
51.6832
20
9.8319
11
51.6939
21
9.81919
0
LINE
5
A2
100
AcDbEntity
8
Black
6
ByLayer
62
256
370
-1
100
AcDbLine
10
51.6939
20
9.81919
11
52.0728
21
9.75238
0
LINE
5
A3
100
AcDbEntity
8
Black
6
ByLayer
62
256
370
-1
100
AcDbLine
10
52.0728
20
9.75238
11
52.0728
21
9.75238
0
LINE
5
A4
100
AcDbEntity
8
Black
6
ByLayer
62
256
370
-1
100
AcDbLine
10
52.0728
20
9.75238
11
52.0822
21
9.74895
0
LINE
5
A5
100
AcDbEntity
8
Black
6
ByLayer
62
256
370
-1
100
AcDbLine
10
52.0822
20
9.74895
11
52.0891
21
9.74644
0
LINE
5
A6
100
AcDbEntity
8
Black
6
ByLayer
62
256
370
-1
100
AcDbLine
10
52.0891
20
9.74644
11
52.0891
21
9.74644
0
LINE
5
A7
100
AcDbEntity
8
Black
6
ByLayer
62
256
370
-1
100
AcDbLine
10
52.0891
20
9.74644
11
52.5403
21
9.48597
0
LINE
5
A8
100
AcDbEntity
8
Black
6
ByLayer
62
256
370
-1
100
AcDbLine
10
52.5403
20
9.48597
11
52.5403
21
9.48597
0
LINE
5
A9
100
AcDbEntity
8
Black
6
ByLayer
62
256
370
-1
100
AcDbLine
10
52.5403
20
9.48597
11
52.5536
21
9.47481
0
LINE
5
AA
100
AcDbEntity
8
Black
6
ByLayer
62
256
370
-1
100
AcDbLine
10
52.5536
20
9.47481
11
52.5536
21
9.47481
0
LINE
5
AB
100
AcDbEntity
8
Black
6
ByLayer
62
256
370
-1
100
AcDbLine
10
52.5536
20
9.47481
11
52.5536
21
9.4748
0
LINE
5
AC
100
AcDbEntity
8
Black
6
ByLayer
62
256
370
-1
100
AcDbLine
10
52.5536
20
9.4748
11
52.8884
21
9.07575
0
LINE
5
AD
100
AcDbEntity
8
Black
6
ByLayer
62
256
370
-1
100
AcDbLine
10
52.8884
20
9.07575
11
52.8884
21
9.07574
0
LINE
5
AE
100
AcDbEntity
8
Black
6
ByLayer
62
256
370
-1
100
AcDbLine
10
52.8884
20
9.07574
11
52.8971
21
9.0607
0
LINE
5
AF
100
AcDbEntity
8
Black
6
ByLayer
62
256
370
-1
100
AcDbLine
10
52.8971
20
9.0607
11
53.0753
21
8.57117
0
LINE
5
B0
100
AcDbEntity
8
Black
6
ByLayer
62
256
370
-1
100
AcDbLine
10
53.0753
20
8.57117
11
53.0783
21
8.55407
0
LINE
5
B1
100
AcDbEntity
8
Black
6
ByLayer
62
256
370
-1
100
AcDbLine
10
53.0783
20
8.55407
11
53.0783
21
8.03313
0
LINE
5
B2
100
AcDbEntity
8
Black
6
ByLayer
62
256
370
-1
100
AcDbLine
10
53.0783
20
8.03313
11
53.0753
21
8.01603
0
LINE
5
B3
100
AcDbEntity
8
Black
6
ByLayer
62
256
370
-1
100
AcDbLine
10
53.0753
20
8.01603
11
52.9783
21
7.74956
0
LINE
5
B4
100
AcDbEntity
8
Black
6
ByLayer
62
256
370
-1
100
AcDbLine
10
52.9783
20
7.74956
11
52.8971
21
7.5265
0
ENDSEC
0
SECTION
2
OBJECTS
0
DICTIONARY
5
C
330
0
100
AcDbDictionary
281
1
3
ACAD_GROUP
350
D
0
DICTIONARY
5
D
330
C
100
AcDbDictionary
281
1
0
ENDSEC
0
EOF
