  0
SECTION
  2
HEADER
  9
$ANGBASE
  50
0.0
  9
$ANGDIR
  70
  1
  9
$MEASUREMENT
  70
0
  0
ENDSEC
  0
SECTION
  2
TABLES
  0
TABLE
  2
LTYPE
  70
1
  0
LTYPE
  2
CONTINUOUS
  70
0
  3
Solid line
  72
65
  73
0
  40
0.0
  0
ENDTAB
  0
TABLE
  2
STYLE
  70
4
  0
STYLE
  2
KICAD
  70
0
  40
0
  41
1
  42
1
  50
0
  71
0
  3
isocp.shx
  0
STYLE
  2
KICADB
  70
0
  40
0
  41
1
  42
1
  50
0
  71
0
  3
isocp.shx
  0
STYLE
  2
KICADI
  70
0
  40
0
  41
1
  42
1
  50
15
  71
0
  3
isocp.shx
  0
STYLE
  2
KICADBI
  70
0
  40
0
  41
1
  42
1
  50
15
  71
0
  3
isocp.shx
  0
ENDTAB
  0
TABLE
  2
LAYER
  70
30
  0
LAYER
  2
BLACK
  70
0
  62
7
  6
CONTINUOUS
  0
LAYER
  2
GRAY1
  70
0
  62
251
  6
CONTINUOUS
  0
LAYER
  2
GRAY2
  70
0
  62
8
  6
CONTINUOUS
  0
LAYER
  2
GRAY3
  70
0
  62
9
  6
CONTINUOUS
  0
LAYER
  2
WHITE
  70
0
  62
7
  6
CONTINUOUS
  0
LAYER
  2
LYELLOW
  70
0
  62
51
  6
CONTINUOUS
  0
LAYER
  2
BLUE1
  70
0
  62
178
  6
CONTINUOUS
  0
LAYER
  2
GREEN1
  70
0
  62
98
  6
CONTINUOUS
  0
LAYER
  2
CYAN1
  70
0
  62
138
  6
CONTINUOUS
  0
LAYER
  2
RED1
  70
0
  62
18
  6
CONTINUOUS
  0
LAYER
  2
MAGENTA1
  70
0
  62
228
  6
CONTINUOUS
  0
LAYER
  2
BROWN1
  70
0
  62
58
  6
CONTINUOUS
  0
LAYER
  2
BLUE2
  70
0
  62
5
  6
CONTINUOUS
  0
LAYER
  2
GREEN2
  70
0
  62
3
  6
CONTINUOUS
  0
LAYER
  2
CYAN2
  70
0
  62
4
  6
CONTINUOUS
  0
LAYER
  2
RED2
  70
0
  62
1
  6
CONTINUOUS
  0
LAYER
  2
MAGENTA2
  70
0
  62
6
  6
CONTINUOUS
  0
LAYER
  2
BROWN2
  70
0
  62
54
  6
CONTINUOUS
  0
LAYER
  2
BLUE3
  70
0
  62
171
  6
CONTINUOUS
  0
LAYER
  2
GREEN3
  70
0
  62
91
  6
CONTINUOUS
  0
LAYER
  2
CYAN3
  70
0
  62
131
  6
CONTINUOUS
  0
LAYER
  2
RED3
  70
0
  62
11
  6
CONTINUOUS
  0
LAYER
  2
MAGENTA3
  70
0
  62
221
  6
CONTINUOUS
  0
LAYER
  2
YELLOW3
  70
0
  62
2
  6
CONTINUOUS
  0
LAYER
  2
BLUE4
  70
0
  62
5
  6
CONTINUOUS
  0
LAYER
  2
GREEN4
  70
0
  62
3
  6
CONTINUOUS
  0
LAYER
  2
CYAN4
  70
0
  62
4
  6
CONTINUOUS
  0
LAYER
  2
RED4
  70
0
  62
1
  6
CONTINUOUS
  0
LAYER
  2
MAGENTA4
  70
0
  62
6
  6
CONTINUOUS
  0
LAYER
  2
YELLOW4
  70
0
  62
2
  6
CONTINUOUS
  0
ENDTAB
  0
ENDSEC
  0
SECTION
  2
ENTITIES
0
LINE
8
Black
10
7.99712
20
7.5265
11
7.98844
21
7.51146
0
LINE
8
Black
10
7.98844
20
7.51146
11
7.98843
21
7.51145
0
LINE
8
Black
10
7.98843
20
7.51145
11
7.65358
21
7.1124
0
LINE
8
Black
10
7.65358
20
7.1124
11
7.65358
21
7.11239
0
LINE
8
Black
10
7.65358
20
7.11239
11
7.65358
21
7.11239
0
LINE
8
Black
10
7.65358
20
7.11239
11
7.64693
21
7.10681
0
LINE
8
Black
10
7.64693
20
7.10681
11
7.64028
21
7.10123
0
LINE
8
Black
10
7.64028
20
7.10123
11
7.64028
21
7.10123
0
LINE
8
Black
10
7.64028
20
7.10123
11
7.64028
21
7.10123
0
LINE
8
Black
10
7.64028
20
7.10123
11
7.18913
21
6.84076
0
LINE
8
Black
10
7.18913
20
6.84076
11
7.18913
21
6.84076
0
LINE
8
Black
10
7.18913
20
6.84076
11
7.18913
21
6.84076
0
LINE
8
Black
10
7.18913
20
6.84076
11
7.18223
21
6.83825
0
LINE
8
Black
10
7.18223
20
6.83825
11
7.17281
21
6.83482
0
LINE
8
Black
10
7.17281
20
6.83482
11
7.17281
21
6.83482
0
LINE
8
Black
10
7.17281
20
6.83482
11
7.17281
21
6.83482
0
LINE
8
Black
10
7.17281
20
6.83482
11
6.65978
21
6.74436
0
LINE
8
Black
10
6.65978
20
6.74436
11
6.65541
21
6.74436
0
LINE
8
Black
10
6.65541
20
6.74436
11
6.6511
21
6.7436
0
LINE
8
Black
10
6.6511
20
6.7436
11
4.6511
21
6.7436
0
LINE
8
Black
10
4.6511
20
6.7436
11
4.64679
21
6.74436
0
LINE
8
Black
10
4.64679
20
6.74436
11
4.64242
21
6.74436
0
LINE
8
Black
10
4.64242
20
6.74436
11
4.12939
21
6.83482
0
LINE
8
Black
10
4.12939
20
6.83482
11
4.12939
21
6.83482
0
LINE
8
Black
10
4.12939
20
6.83482
11
4.12939
21
6.83482
0
LINE
8
Black
10
4.12939
20
6.83482
11
4.11997
21
6.83825
0
LINE
8
Black
10
4.11997
20
6.83825
11
4.11307
21
6.84076
0
LINE
8
Black
10
4.11307
20
6.84076
11
4.11307
21
6.84076
0
LINE
8
Black
10
4.11307
20
6.84076
11
3.66192
21
7.10123
0
LINE
8
Black
10
3.66192
20
7.10123
11
3.66192
21
7.10123
0
LINE
8
Black
10
3.66192
20
7.10123
11
3.65527
21
7.10681
0
LINE
8
Black
10
3.65527
20
7.10681
11
3.64862
21
7.11239
0
LINE
8
Black
10
3.64862
20
7.11239
11
3.64861
21
7.1124
0
LINE
8
Black
10
3.64861
20
7.1124
11
3.31377
21
7.51145
0
LINE
8
Black
10
3.31377
20
7.51145
11
3.31376
21
7.51146
0
LINE
8
Black
10
3.31376
20
7.51146
11
3.30508
21
7.5265
0
LINE
8
Black
10
3.30508
20
7.5265
11
3.1269
21
8.01603
0
LINE
8
Black
10
3.1269
20
8.01603
11
3.12389
21
8.03313
0
LINE
8
Black
10
3.12389
20
8.03313
11
3.12389
21
8.55407
0
LINE
8
Black
10
3.12389
20
8.55407
11
3.1269
21
8.57117
0
LINE
8
Black
10
3.1269
20
8.57117
11
3.30508
21
9.0607
0
LINE
8
Black
10
3.30508
20
9.0607
11
3.31376
21
9.07574
0
LINE
8
Black
10
3.31376
20
9.07574
11
3.31377
21
9.07575
0
LINE
8
Black
10
3.31377
20
9.07575
11
3.64861
21
9.4748
0
LINE
8
Black
10
3.64861
20
9.4748
11
3.64862
21
9.47481
0
LINE
8
Black
10
3.64862
20
9.47481
11
3.66192
21
9.48597
0
LINE
8
Black
10
3.66192
20
9.48597
11
3.66192
21
9.48597
0
LINE
8
Black
10
3.66192
20
9.48597
11
4.11307
21
9.74644
0
LINE
8
Black
10
4.11307
20
9.74644
11
4.11307
21
9.74644
0
LINE
8
Black
10
4.11307
20
9.74644
11
4.11997
21
9.74895
0
LINE
8
Black
10
4.11997
20
9.74895
11
4.12939
21
9.75238
0
LINE
8
Black
10
4.12939
20
9.75238
11
4.12939
21
9.75238
0
LINE
8
Black
10
4.12939
20
9.75238
11
4.64242
21
9.84284
0
LINE
8
Black
10
4.64242
20
9.84284
11
4.64679
21
9.84284
0
LINE
8
Black
10
4.64679
20
9.84284
11
4.6511
21
9.8436
0
LINE
8
Black
10
4.6511
20
9.8436
11
6.6511
21
9.8436
0
LINE
8
Black
10
6.6511
20
9.8436
11
6.65541
21
9.84284
0
LINE
8
Black
10
6.65541
20
9.84284
11
6.65978
21
9.84284
0
LINE
8
Black
10
6.65978
20
9.84284
11
7.17281
21
9.75238
0
LINE
8
Black
10
7.17281
20
9.75238
11
7.17281
21
9.75238
0
LINE
8
Black
10
7.17281
20
9.75238
11
7.18223
21
9.74895
0
LINE
8
Black
10
7.18223
20
9.74895
11
7.18913
21
9.74644
0
LINE
8
Black
10
7.18913
20
9.74644
11
7.18913
21
9.74644
0
LINE
8
Black
10
7.18913
20
9.74644
11
7.64028
21
9.48597
0
LINE
8
Black
10
7.64028
20
9.48597
11
7.64028
21
9.48597
0
LINE
8
Black
10
7.64028
20
9.48597
11
7.65358
21
9.47481
0
LINE
8
Black
10
7.65358
20
9.47481
11
7.65358
21
9.47481
0
LINE
8
Black
10
7.65358
20
9.47481
11
7.65358
21
9.4748
0
LINE
8
Black
10
7.65358
20
9.4748
11
7.98843
21
9.07575
0
LINE
8
Black
10
7.98843
20
9.07575
11
7.98844
21
9.07574
0
LINE
8
Black
10
7.98844
20
9.07574
11
7.99712
21
9.0607
0
LINE
8
Black
10
7.99712
20
9.0607
11
8.1753
21
8.57117
0
LINE
8
Black
10
8.1753
20
8.57117
11
8.17831
21
8.55407
0
LINE
8
Black
10
8.17831
20
8.55407
11
8.17831
21
8.03313
0
LINE
8
Black
10
8.17831
20
8.03313
11
8.1753
21
8.01603
0
LINE
8
Black
10
8.1753
20
8.01603
11
8.07831
21
7.74956
0
LINE
8
Black
10
8.07831
20
7.74956
11
7.99712
21
7.5265
0
LINE
8
Black
10
7.90617
20
9.01822
11
7.58265
21
9.40377
0
LINE
8
Black
10
7.58265
20
9.40377
11
7.14676
21
9.65543
0
LINE
8
Black
10
7.14676
20
9.65543
11
6.64673
21
9.7436
0
LINE
8
Black
10
6.64673
20
9.7436
11
4.65547
21
9.7436
0
LINE
8
Black
10
4.65547
20
9.7436
11
4.15543
21
9.65543
0
LINE
8
Black
10
4.15543
20
9.65543
11
3.71955
21
9.40377
0
LINE
8
Black
10
3.71955
20
9.40377
11
3.39603
21
9.01822
0
LINE
8
Black
10
3.39603
20
9.01822
11
3.22389
21
8.54525
0
LINE
8
Black
10
3.22389
20
8.54525
11
3.22389
21
8.04195
0
LINE
8
Black
10
3.22389
20
8.04195
11
3.39603
21
7.56898
0
LINE
8
Black
10
3.39603
20
7.56898
11
3.71955
21
7.18343
0
LINE
8
Black
10
3.71955
20
7.18343
11
4.15543
21
6.93177
0
LINE
8
Black
10
4.15543
20
6.93177
11
4.65547
21
6.8436
0
LINE
8
Black
10
4.65547
20
6.8436
11
6.64673
21
6.8436
0
LINE
8
Black
10
6.64673
20
6.8436
11
7.14676
21
6.93177
0
LINE
8
Black
10
7.14676
20
6.93177
11
7.58265
21
7.18343
0
LINE
8
Black
10
7.58265
20
7.18343
11
7.90617
21
7.56898
0
LINE
8
Black
10
7.90617
20
7.56898
11
8.07831
21
8.04195
0
LINE
8
Black
10
8.07831
20
8.04195
11
8.07831
21
8.54525
0
LINE
8
Black
10
8.07831
20
8.54525
11
7.90617
21
9.01822
0
LINE
8
Black
10
52.8971
20
7.5265
11
52.8884
21
7.51146
0
LINE
8
Black
10
52.8884
20
7.51146
11
52.8884
21
7.51145
0
LINE
8
Black
10
52.8884
20
7.51145
11
52.5536
21
7.1124
0
LINE
8
Black
10
52.5536
20
7.1124
11
52.5536
21
7.11239
0
LINE
8
Black
10
52.5536
20
7.11239
11
52.5536
21
7.11239
0
LINE
8
Black
10
52.5536
20
7.11239
11
52.5469
21
7.10681
0
LINE
8
Black
10
52.5469
20
7.10681
11
52.5403
21
7.10123
0
LINE
8
Black
10
52.5403
20
7.10123
11
52.5403
21
7.10123
0
LINE
8
Black
10
52.5403
20
7.10123
11
52.5403
21
7.10123
0
LINE
8
Black
10
52.5403
20
7.10123
11
52.0891
21
6.84076
0
LINE
8
Black
10
52.0891
20
6.84076
11
52.0891
21
6.84076
0
LINE
8
Black
10
52.0891
20
6.84076
11
52.0891
21
6.84076
0
LINE
8
Black
10
52.0891
20
6.84076
11
52.0822
21
6.83825
0
LINE
8
Black
10
52.0822
20
6.83825
11
52.0728
21
6.83482
0
LINE
8
Black
10
52.0728
20
6.83482
11
52.0728
21
6.83482
0
LINE
8
Black
10
52.0728
20
6.83482
11
52.0728
21
6.83482
0
LINE
8
Black
10
52.0728
20
6.83482
11
51.6939
21
6.76801
0
LINE
8
Black
10
51.6939
20
6.76801
11
51.6832
21
6.7553
0
LINE
8
Black
10
51.6832
20
6.7553
11
51.6682
21
6.74661
0
LINE
8
Black
10
51.6682
20
6.74661
11
51.6511
21
6.7436
0
LINE
8
Black
10
51.6511
20
6.7436
11
49.6511
21
6.7436
0
LINE
8
Black
10
49.6511
20
6.7436
11
49.6468
21
6.74436
0
LINE
8
Black
10
49.6468
20
6.74436
11
49.6424
21
6.74436
0
LINE
8
Black
10
49.6424
20
6.74436
11
49.1294
21
6.83482
0
LINE
8
Black
10
49.1294
20
6.83482
11
49.1294
21
6.83482
0
LINE
8
Black
10
49.1294
20
6.83482
11
49.1294
21
6.83482
0
LINE
8
Black
10
49.1294
20
6.83482
11
49.12
21
6.83825
0
LINE
8
Black
10
49.12
20
6.83825
11
49.1131
21
6.84076
0
LINE
8
Black
10
49.1131
20
6.84076
11
49.1131
21
6.84076
0
LINE
8
Black
10
49.1131
20
6.84076
11
48.6619
21
7.10123
0
LINE
8
Black
10
48.6619
20
7.10123
11
48.6619
21
7.10123
0
LINE
8
Black
10
48.6619
20
7.10123
11
48.6553
21
7.10681
0
LINE
8
Black
10
48.6553
20
7.10681
11
48.6486
21
7.11239
0
LINE
8
Black
10
48.6486
20
7.11239
11
48.6486
21
7.1124
0
LINE
8
Black
10
48.6486
20
7.1124
11
48.3138
21
7.51145
0
LINE
8
Black
10
48.3138
20
7.51145
11
48.3138
21
7.51146
0
LINE
8
Black
10
48.3138
20
7.51146
11
48.3051
21
7.5265
0
LINE
8
Black
10
48.3051
20
7.5265
11
48.1269
21
8.01603
0
LINE
8
Black
10
48.1269
20
8.01603
11
48.1239
21
8.03313
0
LINE
8
Black
10
48.1239
20
8.03313
11
48.1239
21
8.55407
0
LINE
8
Black
10
48.1239
20
8.55407
11
48.1269
21
8.57117
0
LINE
8
Black
10
48.1269
20
8.57117
11
48.3051
21
9.0607
0
LINE
8
Black
10
48.3051
20
9.0607
11
48.3138
21
9.07574
0
LINE
8
Black
10
48.3138
20
9.07574
11
48.3138
21
9.07575
0
LINE
8
Black
10
48.3138
20
9.07575
11
48.6486
21
9.4748
0
LINE
8
Black
10
48.6486
20
9.4748
11
48.6486
21
9.47481
0
LINE
8
Black
10
48.6486
20
9.47481
11
48.6619
21
9.48597
0
LINE
8
Black
10
48.6619
20
9.48597
11
48.6619
21
9.48597
0
LINE
8
Black
10
48.6619
20
9.48597
11
49.1131
21
9.74644
0
LINE
8
Black
10
49.1131
20
9.74644
11
49.1131
21
9.74644
0
LINE
8
Black
10
49.1131
20
9.74644
11
49.12
21
9.74895
0
LINE
8
Black
10
49.12
20
9.74895
11
49.1294
21
9.75238
0
LINE
8
Black
10
49.1294
20
9.75238
11
49.1294
21
9.75238
0
LINE
8
Black
10
49.1294
20
9.75238
11
49.6424
21
9.84284
0
LINE
8
Black
10
49.6424
20
9.84284
11
49.6468
21
9.84284
0
LINE
8
Black
10
49.6468
20
9.84284
11
49.6511
21
9.8436
0
LINE
8
Black
10
49.6511
20
9.8436
11
51.6511
21
9.8436
0
LINE
8
Black
10
51.6511
20
9.8436
11
51.6682
21
9.84058
0
LINE
8
Black
10
51.6682
20
9.84058
11
51.6832
21
9.8319
0
LINE
8
Black
10
51.6832
20
9.8319
11
51.6939
21
9.81919
0
LINE
8
Black
10
51.6939
20
9.81919
11
52.0728
21
9.75238
0
LINE
8
Black
10
52.0728
20
9.75238
11
52.0728
21
9.75238
0
LINE
8
Black
10
52.0728
20
9.75238
11
52.0822
21
9.74895
0
LINE
8
Black
10
52.0822
20
9.74895
11
52.0891
21
9.74644
0
LINE
8
Black
10
52.0891
20
9.74644
11
52.0891
21
9.74644
0
LINE
8
Black
10
52.0891
20
9.74644
11
52.5403
21
9.48597
0
LINE
8
Black
10
52.5403
20
9.48597
11
52.5403
21
9.48597
0
LINE
8
Black
10
52.5403
20
9.48597
11
52.5536
21
9.47481
0
LINE
8
Black
10
52.5536
20
9.47481
11
52.5536
21
9.47481
0
LINE
8
Black
10
52.5536
20
9.47481
11
52.5536
21
9.4748
0
LINE
8
Black
10
52.5536
20
9.4748
11
52.8884
21
9.07575
0
LINE
8
Black
10
52.8884
20
9.07575
11
52.8884
21
9.07574
0
LINE
8
Black
10
52.8884
20
9.07574
11
52.8971
21
9.0607
0
LINE
8
Black
10
52.8971
20
9.0607
11
53.0753
21
8.57117
0
LINE
8
Black
10
53.0753
20
8.57117
11
53.0783
21
8.55407
0
LINE
8
Black
10
53.0783
20
8.55407
11
53.0783
21
8.03313
0
LINE
8
Black
10
53.0783
20
8.03313
11
53.0753
21
8.01603
0
LINE
8
Black
10
53.0753
20
8.01603
11
52.9783
21
7.74956
0
LINE
8
Black
10
52.9783
20
7.74956
11
52.8971
21
7.5265
0
LINE
8
Black
10
52.8062
20
9.01822
11
52.4826
21
9.40377
0
LINE
8
Black
10
52.4826
20
9.40377
11
52.0468
21
9.65543
0
LINE
8
Black
10
52.0468
20
9.65543
11
51.5467
21
9.7436
0
LINE
8
Black
10
51.5467
20
9.7436
11
49.6555
21
9.7436
0
LINE
8
Black
10
49.6555
20
9.7436
11
49.1554
21
9.65543
0
LINE
8
Black
10
49.1554
20
9.65543
11
48.7196
21
9.40377
0
LINE
8
Black
10
48.7196
20
9.40377
11
48.396
21
9.01822
0
LINE
8
Black
10
48.396
20
9.01822
11
48.2239
21
8.54525
0
LINE
8
Black
10
48.2239
20
8.54525
11
48.2239
21
8.04195
0
LINE
8
Black
10
48.2239
20
8.04195
11
48.396
21
7.56898
0
LINE
8
Black
10
48.396
20
7.56898
11
48.7196
21
7.18343
0
LINE
8
Black
10
48.7196
20
7.18343
11
49.1554
21
6.93177
0
LINE
8
Black
10
49.1554
20
6.93177
11
49.6555
21
6.8436
0
LINE
8
Black
10
49.6555
20
6.8436
11
51.5467
21
6.8436
0
LINE
8
Black
10
51.5467
20
6.8436
11
52.0468
21
6.93177
0
LINE
8
Black
10
52.0468
20
6.93177
11
52.4826
21
7.18343
0
LINE
8
Black
10
52.4826
20
7.18343
11
52.8062
21
7.56898
0
LINE
8
Black
10
52.8062
20
7.56898
11
52.9783
21
8.04195
0
LINE
8
Black
10
52.9783
20
8.04195
11
52.9783
21
8.54525
0
LINE
8
Black
10
52.9783
20
8.54525
11
52.8062
21
9.01822
0
LINE
8
Black
10
54.4604
20
1.62582
11
54.4604
21
1.62581
0
LINE
8
Black
10
54.4604
20
1.62581
11
54.4604
21
1.62581
0
LINE
8
Black
10
54.4604
20
1.62581
11
54.4493
21
1.61251
0
LINE
8
Black
10
54.4493
20
1.61251
11
54.1832
21
1.38928
0
LINE
8
Black
10
54.1832
20
1.38928
11
54.1832
21
1.38927
0
LINE
8
Black
10
54.1832
20
1.38927
11
54.1832
21
1.38927
0
LINE
8
Black
10
54.1832
20
1.38927
11
54.1682
21
1.38059
0
LINE
8
Black
10
54.1682
20
1.38059
11
53.8418
21
1.26181
0
LINE
8
Black
10
53.8418
20
1.26181
11
53.8354
21
1.26067
0
LINE
8
Black
10
53.8354
20
1.26067
11
53.8291
21
1.25898
0
LINE
8
Black
10
53.8291
20
1.25898
11
53.6555
21
1.24379
0
LINE
8
Black
10
53.6555
20
1.24379
11
53.6533
21
1.24398
0
LINE
8
Black
10
53.6533
20
1.24398
11
53.6511
21
1.2436
0
LINE
8
Black
10
53.6511
20
1.2436
11
2.6511
21
1.2436
0
LINE
8
Black
10
2.6511
20
1.2436
11
2.64679
21
1.24436
0
LINE
8
Black
10
2.64679
20
1.24436
11
2.64242
21
1.24436
0
LINE
8
Black
10
2.64242
20
1.24436
11
2.3004
21
1.30467
0
LINE
8
Black
10
2.3004
20
1.30467
11
2.3004
21
1.30467
0
LINE
8
Black
10
2.3004
20
1.30467
11
2.3004
21
1.30467
0
LINE
8
Black
10
2.3004
20
1.30467
11
2.29098
21
1.30809
0
LINE
8
Black
10
2.29098
20
1.30809
11
2.28408
21
1.31061
0
LINE
8
Black
10
2.28408
20
1.31061
11
2.28408
21
1.31061
0
LINE
8
Black
10
2.28408
20
1.31061
11
1.98332
21
1.48425
0
LINE
8
Black
10
1.98332
20
1.48425
11
1.98331
21
1.48425
0
LINE
8
Black
10
1.98331
20
1.48425
11
1.97001
21
1.49542
0
LINE
8
Black
10
1.97001
20
1.49542
11
1.74677
21
1.76146
0
LINE
8
Black
10
1.74677
20
1.76146
11
1.74677
21
1.76146
0
LINE
8
Black
10
1.74677
20
1.76146
11
1.73809
21
1.7765
0
LINE
8
Black
10
1.73809
20
1.7765
11
1.61931
21
2.10285
0
LINE
8
Black
10
1.61931
20
2.10285
11
1.61817
21
2.10928
0
LINE
8
Black
10
1.61817
20
2.10928
11
1.61648
21
2.11559
0
LINE
8
Black
10
1.61648
20
2.11559
11
1.60129
21
2.28924
0
LINE
8
Black
10
1.60129
20
2.28924
11
1.60148
21
2.29143
0
LINE
8
Black
10
1.60148
20
2.29143
11
1.6011
21
2.2936
0
LINE
8
Black
10
1.6011
20
2.2936
11
1.6011
21
14.2936
0
LINE
8
Black
10
1.6011
20
14.2936
11
1.60186
21
14.2979
0
LINE
8
Black
10
1.60186
20
14.2979
11
1.60186
21
14.3023
0
LINE
8
Black
10
1.60186
20
14.3023
11
1.66217
21
14.6443
0
LINE
8
Black
10
1.66217
20
14.6443
11
1.66217
21
14.6443
0
LINE
8
Black
10
1.66217
20
14.6443
11
1.66559
21
14.6537
0
LINE
8
Black
10
1.66559
20
14.6537
11
1.6681
21
14.6606
0
LINE
8
Black
10
1.6681
20
14.6606
11
1.66811
21
14.6606
0
LINE
8
Black
10
1.66811
20
14.6606
11
1.84175
21
14.9614
0
LINE
8
Black
10
1.84175
20
14.9614
11
1.85292
21
14.9747
0
LINE
8
Black
10
1.85292
20
14.9747
11
1.85292
21
14.9747
0
LINE
8
Black
10
1.85292
20
14.9747
11
2.11896
21
15.1979
0
LINE
8
Black
10
2.11896
20
15.1979
11
2.11896
21
15.1979
0
LINE
8
Black
10
2.11896
20
15.1979
11
2.134
21
15.2066
0
LINE
8
Black
10
2.134
20
15.2066
11
2.46035
21
15.3254
0
LINE
8
Black
10
2.46035
20
15.3254
11
2.46678
21
15.3265
0
LINE
8
Black
10
2.46678
20
15.3265
11
2.47309
21
15.3282
0
LINE
8
Black
10
2.47309
20
15.3282
11
2.64674
21
15.3434
0
LINE
8
Black
10
2.64674
20
15.3434
11
2.64893
21
15.3432
0
LINE
8
Black
10
2.64893
20
15.3432
11
2.6511
21
15.3436
0
LINE
8
Black
10
2.6511
20
15.3436
11
53.6511
21
15.3436
0
LINE
8
Black
10
53.6511
20
15.3436
11
53.6554
21
15.3428
0
LINE
8
Black
10
53.6554
20
15.3428
11
53.6598
21
15.3428
0
LINE
8
Black
10
53.6598
20
15.3428
11
54.0018
21
15.2825
0
LINE
8
Black
10
54.0018
20
15.2825
11
54.0018
21
15.2825
0
LINE
8
Black
10
54.0018
20
15.2825
11
54.0112
21
15.2791
0
LINE
8
Black
10
54.0112
20
15.2791
11
54.0181
21
15.2766
0
LINE
8
Black
10
54.0181
20
15.2766
11
54.0181
21
15.2766
0
LINE
8
Black
10
54.0181
20
15.2766
11
54.3189
21
15.1029
0
LINE
8
Black
10
54.3189
20
15.1029
11
54.3322
21
15.0918
0
LINE
8
Black
10
54.3322
20
15.0918
11
54.3322
21
15.0918
0
LINE
8
Black
10
54.3322
20
15.0918
11
54.3322
21
15.0918
0
LINE
8
Black
10
54.3322
20
15.0918
11
54.5554
21
14.8257
0
LINE
8
Black
10
54.5554
20
14.8257
11
54.5554
21
14.8257
0
LINE
8
Black
10
54.5554
20
14.8257
11
54.5554
21
14.8257
0
LINE
8
Black
10
54.5554
20
14.8257
11
54.5641
21
14.8107
0
LINE
8
Black
10
54.5641
20
14.8107
11
54.6829
21
14.4843
0
LINE
8
Black
10
54.6829
20
14.4843
11
54.684
21
14.4779
0
LINE
8
Black
10
54.684
20
14.4779
11
54.6857
21
14.4716
0
LINE
8
Black
10
54.6857
20
14.4716
11
54.7009
21
14.298
0
LINE
8
Black
10
54.7009
20
14.298
11
54.7007
21
14.2958
0
LINE
8
Black
10
54.7007
20
14.2958
11
54.7011
21
14.2936
0
LINE
8
Black
10
54.7011
20
14.2936
11
54.7011
21
2.2936
0
LINE
8
Black
10
54.7011
20
2.2936
11
54.7003
21
2.28929
0
LINE
8
Black
10
54.7003
20
2.28929
11
54.7003
21
2.28492
0
LINE
8
Black
10
54.7003
20
2.28492
11
54.64
21
1.9429
0
LINE
8
Black
10
54.64
20
1.9429
11
54.64
21
1.9429
0
LINE
8
Black
10
54.64
20
1.9429
11
54.64
21
1.9429
0
LINE
8
Black
10
54.64
20
1.9429
11
54.6366
21
1.93348
0
LINE
8
Black
10
54.6366
20
1.93348
11
54.6341
21
1.92658
0
LINE
8
Black
10
54.6341
20
1.92658
11
54.6341
21
1.92658
0
LINE
8
Black
10
54.6341
20
1.92658
11
54.6341
21
1.92658
0
LINE
8
Black
10
54.6341
20
1.92658
11
54.6011
21
1.86943
0
LINE
8
Black
10
54.6011
20
1.86943
11
54.4604
21
1.62582
0
LINE
8
Black
10
54.5867
20
14.4563
11
54.4732
21
14.7682
0
LINE
8
Black
10
54.4732
20
14.7682
11
54.2613
21
15.0208
0
LINE
8
Black
10
54.2613
20
15.0208
11
53.9758
21
15.1856
0
LINE
8
Black
10
53.9758
20
15.1856
11
53.6467
21
15.2436
0
LINE
8
Black
10
53.6467
20
15.2436
11
2.65328
21
15.2436
0
LINE
8
Black
10
2.65328
20
15.2436
11
2.48837
21
15.2292
0
LINE
8
Black
10
2.48837
20
15.2292
11
2.17649
21
15.1157
0
LINE
8
Black
10
2.17649
20
15.1157
11
1.92395
21
14.9038
0
LINE
8
Black
10
1.92395
20
14.9038
11
1.75912
21
14.6183
0
LINE
8
Black
10
1.75912
20
14.6183
11
1.7011
21
14.2892
0
LINE
8
Black
10
1.7011
20
14.2892
11
1.7011
21
2.29579
0
LINE
8
Black
10
1.7011
20
2.29579
11
1.71553
21
2.13087
0
LINE
8
Black
10
1.71553
20
2.13087
11
1.82904
21
1.81898
0
LINE
8
Black
10
1.82904
20
1.81898
11
2.04095
21
1.56645
0
LINE
8
Black
10
2.04095
20
1.56645
11
2.32645
21
1.40162
0
LINE
8
Black
10
2.32645
20
1.40162
11
2.65547
21
1.3436
0
LINE
8
Black
10
2.65547
20
1.3436
11
53.6489
21
1.3436
0
LINE
8
Black
10
53.6489
20
1.3436
11
53.8138
21
1.35803
0
LINE
8
Black
10
53.8138
20
1.35803
11
54.1257
21
1.47155
0
LINE
8
Black
10
54.1257
20
1.47155
11
54.3783
21
1.68345
0
LINE
8
Black
10
54.3783
20
1.68345
11
54.5431
21
1.96895
0
LINE
8
Black
10
54.5431
20
1.96895
11
54.6011
21
2.29797
0
LINE
8
Black
10
54.6011
20
2.29797
11
54.6011
21
14.2914
0
LINE
8
Black
10
54.6011
20
14.2914
11
54.5867
21
14.4563
  0
ENDSEC
  0
EOF
